<svg width="25" height="25" viewBox="0 0 25 25" fill="none" xmlns="http://www.w3.org/2000/svg">
<path d="M24 -0.00976562H1C0.446875 -0.00976562 0 0.437109 0 0.990234V23.9902C0 24.5434 0.446875 24.9902 1 24.9902H24C24.5531 24.9902 25 24.5434 25 23.9902V0.990234C25 0.437109 24.5531 -0.00976562 24 -0.00976562ZM23 22.9902H17.2469V15.309H20.4969L20.9844 11.5371H17.2469V9.12773C17.2469 8.03398 17.55 7.29023 19.1156 7.29023H21.1125V3.91523C20.7656 3.86836 19.5813 3.76523 18.2 3.76523C15.3188 3.76523 13.3469 5.52461 13.3469 8.75273V11.534H10.0906V15.3059H13.35V22.9902H2V1.99023H23V22.9902Z" fill="#F9F9F4"/>
</svg>
