<svg width="20" height="20" viewBox="0 0 20 20" fill="none" xmlns="http://www.w3.org/2000/svg">
<path d="M1.6 6.99023H18.4M1.6 12.9902H18.4M1 9.99023C1 11.1721 1.23279 12.3425 1.68508 13.4344C2.13738 14.5263 2.80031 15.5185 3.63604 16.3542C4.47177 17.1899 5.46392 17.8529 6.55585 18.3052C7.64778 18.7574 8.8181 18.9902 10 18.9902C11.1819 18.9902 12.3522 18.7574 13.4442 18.3052C14.5361 17.8529 15.5282 17.1899 16.364 16.3542C17.1997 15.5185 17.8626 14.5263 18.3149 13.4344C18.7672 12.3425 19 11.1721 19 9.99023C19 7.60329 18.0518 5.3141 16.364 3.62627C14.6761 1.93845 12.3869 0.990234 10 0.990234C7.61305 0.990234 5.32387 1.93845 3.63604 3.62627C1.94821 5.3141 1 7.60329 1 9.99023Z" stroke="#F9F9F4" stroke-width="2" stroke-linecap="round" stroke-linejoin="round"/>
<path d="M9.50016 0.990234C7.8155 3.68985 6.92236 6.8081 6.92236 9.99023C6.92236 13.1724 7.8155 16.2906 9.50016 18.9902M10.5002 0.990234C12.1848 3.68985 13.078 6.8081 13.078 9.99023C13.078 13.1724 12.1848 16.2906 10.5002 18.9902" stroke="#F9F9F4" stroke-width="2" stroke-linecap="round" stroke-linejoin="round"/>
</svg>
