<svg width="16" height="16" viewBox="0 0 16 16" fill="none" xmlns="http://www.w3.org/2000/svg">
<path d="M3.21778 6.91468C4.49778 9.43023 6.56 11.4836 9.07556 12.7725L11.0311 10.8169C11.2711 10.5769 11.6267 10.4969 11.9378 10.6036C12.9333 10.9325 14.0089 11.1102 15.1111 11.1102C15.6 11.1102 16 11.5102 16 11.9991V15.1013C16 15.5902 15.6 15.9902 15.1111 15.9902C6.76444 15.9902 0 9.22579 0 0.879123C0 0.390234 0.4 -0.00976562 0.888889 -0.00976562H4C4.48889 -0.00976562 4.88889 0.390234 4.88889 0.879123C4.88889 1.99023 5.06667 3.0569 5.39556 4.05246C5.49333 4.36357 5.42222 4.71023 5.17333 4.95912L3.21778 6.91468Z" fill="#F9F9F4"/>
</svg>
