<svg width="4" height="18" viewBox="0 0 4 18" fill="none" xmlns="http://www.w3.org/2000/svg">
<path d="M3.42803 0.23999V7.10399C3.42803 7.83199 3.39203 8.54799 3.32003 9.25199C3.24803 9.94799 3.15603 10.688 3.04403 11.472H1.02803C0.916026 10.688 0.824026 9.94799 0.752025 9.25199C0.680025 8.54799 0.644025 7.83199 0.644025 7.10399V0.23999H3.42803ZM0.176025 15.96C0.176025 15.712 0.220025 15.476 0.308025 15.252C0.404025 15.028 0.532025 14.836 0.692025 14.676C0.860025 14.516 1.05603 14.388 1.28003 14.292C1.50403 14.196 1.74403 14.148 2.00003 14.148C2.24803 14.148 2.48403 14.196 2.70803 14.292C2.93203 14.388 3.12403 14.516 3.28403 14.676C3.45203 14.836 3.58403 15.028 3.68003 15.252C3.77603 15.476 3.82403 15.712 3.82403 15.96C3.82403 16.216 3.77603 16.456 3.68003 16.68C3.58403 16.896 3.45203 17.084 3.28403 17.244C3.12403 17.404 2.93203 17.528 2.70803 17.616C2.48403 17.712 2.24803 17.76 2.00003 17.76C1.74403 17.76 1.50403 17.712 1.28003 17.616C1.05603 17.528 0.860025 17.404 0.692025 17.244C0.532025 17.084 0.404025 16.896 0.308025 16.68C0.220025 16.456 0.176025 16.216 0.176025 15.96Z" fill="black"/>
</svg>
