<svg width="45" height="49" viewBox="0 0 45 49" fill="none" xmlns="http://www.w3.org/2000/svg">
<path d="M21.6261 13.7767C22.1257 13.2188 22.7221 12.7745 23.3806 12.4695C24.0391 12.1646 24.7467 12.005 25.4622 12.0001C26.1778 11.9953 26.8872 12.1451 27.5492 12.4411C28.2111 12.7371 28.8125 13.1732 29.3185 13.7242C29.8245 14.2752 30.2249 14.9302 30.4966 15.651C30.7683 16.3719 30.9059 17.1443 30.9013 17.9235C30.8967 18.7027 30.7501 19.4731 30.4699 20.1902C30.1898 20.9072 29.7816 21.5565 29.2692 22.1004L20.8618 31.2563C20.5616 31.5886 20.2039 31.853 19.8094 32.034C19.4149 32.2151 18.9914 32.3093 18.5633 32.3113C18.1351 32.3132 17.7109 32.2229 17.315 32.0454C16.9191 31.8679 16.5594 31.6069 16.2567 31.2773C15.9539 30.9477 15.7141 30.5561 15.551 30.125C15.3879 29.694 15.3048 29.2321 15.3065 28.7659C15.3082 28.2997 15.3947 27.8385 15.5609 27.4089C15.7271 26.9793 15.9697 26.5898 16.2749 26.2628L24.6834 17.1069L26.212 18.7714L17.8035 27.9273C17.7002 28.0359 17.6179 28.1658 17.5612 28.3094C17.5046 28.453 17.4748 28.6075 17.4735 28.7638C17.4723 28.9201 17.4996 29.0751 17.554 29.2197C17.6083 29.3644 17.6886 29.4958 17.7901 29.6064C17.8916 29.7169 18.0123 29.8043 18.1452 29.8635C18.278 29.9227 18.4204 29.9525 18.5639 29.9511C18.7075 29.9497 18.8493 29.9173 18.9812 29.8556C19.1131 29.7939 19.2324 29.7042 19.3321 29.5918L27.7417 20.4359C28.0429 20.1079 28.2818 19.7186 28.4448 19.2901C28.6078 18.8616 28.6917 18.4023 28.6917 17.9385C28.6917 17.4747 28.6078 17.0155 28.4448 16.587C28.2818 16.1585 28.0429 15.7692 27.7417 15.4412C27.4405 15.1133 27.0829 14.8531 26.6894 14.6756C26.2959 14.4981 25.8741 14.4068 25.4482 14.4068C25.0223 14.4068 24.6005 14.4981 24.207 14.6756C23.8135 14.8531 23.4559 15.1133 23.1547 15.4412L14.7463 24.5983C13.7616 25.7084 13.2168 27.1951 13.2291 28.7383C13.2414 30.2816 13.8099 31.7578 14.8121 32.8491C15.8143 33.9403 17.17 34.5593 18.5873 34.5728C20.0045 34.5862 21.3699 33.9929 22.3894 32.9208L31.5632 22.9326L33.0918 24.5983L23.9191 34.5864C22.4998 36.1318 20.5749 37 18.5678 37C16.5607 37 14.6358 36.1318 13.2166 34.5864C11.7973 33.041 11 30.945 11 28.7595C11 26.574 11.7973 24.478 13.2166 22.9326L21.6261 13.7767Z" fill="#1D2621"/>
</svg>
