<svg width="48" height="49" viewBox="0 0 48 49" fill="none" xmlns="http://www.w3.org/2000/svg">
<path d="M31.4003 22.7143L25.1116 16.4256C24.8167 16.1309 24.4169 15.9653 24 15.9653C23.5832 15.9653 23.1833 16.1309 22.8885 16.4256L16.5998 22.7143C16.4532 22.86 16.337 23.0334 16.258 23.2243C16.1789 23.4152 16.1385 23.62 16.1392 23.8267V31.3731C16.1392 31.6233 16.2386 31.8632 16.4155 32.0401C16.5924 32.217 16.8323 32.3164 17.0825 32.3164H22.1134C22.3636 32.3164 22.6035 32.217 22.7804 32.0401C22.9573 31.8632 23.0567 31.6233 23.0567 31.3731V27.2854H24.9433V31.3731C24.9433 31.6233 25.0427 31.8632 25.2196 32.0401C25.3965 32.217 25.6365 32.3164 25.8866 32.3164H30.9176C31.1678 32.3164 31.4077 32.217 31.5846 32.0401C31.7615 31.8632 31.8609 31.6233 31.8609 31.3731V23.8267C31.8616 23.62 31.8212 23.4152 31.7421 23.2243C31.663 23.0334 31.5468 22.86 31.4003 22.7143ZM29.9743 30.4298H26.83V26.3421C26.83 26.092 26.7306 25.852 26.5537 25.6751C26.3768 25.4982 26.1368 25.3988 25.8866 25.3988H22.1134C21.8632 25.3988 21.6233 25.4982 21.4464 25.6751C21.2695 25.852 21.1701 26.092 21.1701 26.3421V30.4298H18.0258V23.9564L24 17.9821L29.9743 23.9564V30.4298Z" fill="#1D2621"/>
</svg>
