<svg width="24" height="25" viewBox="0 0 24 25" fill="none" xmlns="http://www.w3.org/2000/svg">
<path d="M19.4003 11.1435L13.1116 4.85484C12.8167 4.56011 12.4169 4.39453 12 4.39453C11.5832 4.39453 11.1833 4.56011 10.8885 4.85484L4.59982 11.1435C4.45323 11.2892 4.33703 11.4626 4.25796 11.6535C4.17888 11.8444 4.1385 12.0492 4.13917 12.2559V19.8023C4.13917 20.0525 4.23855 20.2924 4.41546 20.4693C4.59236 20.6462 4.83229 20.7456 5.08247 20.7456H10.1134C10.3636 20.7456 10.6035 20.6462 10.7804 20.4693C10.9573 20.2924 11.0567 20.0525 11.0567 19.8023V15.7146H12.9433V19.8023C12.9433 20.0525 13.0427 20.2924 13.2196 20.4693C13.3965 20.6462 13.6365 20.7456 13.8866 20.7456H18.9176C19.1678 20.7456 19.4077 20.6462 19.5846 20.4693C19.7615 20.2924 19.8609 20.0525 19.8609 19.8023V12.2559C19.8616 12.0492 19.8212 11.8444 19.7421 11.6535C19.663 11.4626 19.5468 11.2892 19.4003 11.1435ZM17.9743 18.859H14.83V14.7713C14.83 14.5211 14.7306 14.2812 14.5537 14.1043C14.3768 13.9274 14.1368 13.828 13.8866 13.828H10.1134C9.86325 13.828 9.62332 13.9274 9.44641 14.1043C9.26951 14.2812 9.17012 14.5211 9.17012 14.7713V18.859H6.02578V12.3856L12 6.41129L17.9743 12.3856V18.859Z" fill="#7AA088"/>
</svg>
