<svg width="48" height="49" viewBox="0 0 48 49" fill="none" xmlns="http://www.w3.org/2000/svg">
<path d="M21 21.1409V23.1409H19V21.1409H17V23.1409H15V21.1409H13V33.1409H15V31.1409H17V33.1409H19V31.1409H21V33.1409H23V31.1409H25V33.1409H27V31.1409H29V33.1409H31V31.1409H33V33.1409H35V21.1409H33V23.1409H31V21.1409H29V23.1409H27V21.1409H25V23.1409H23V21.1409H21ZM15 25.1409H17V29.1409H15V25.1409ZM19 25.1409H21V29.1409H19V25.1409ZM23 25.1409H25V29.1409H23V25.1409ZM27 25.1409H29V29.1409H27V25.1409ZM31 25.1409H33V29.1409H31V25.1409Z" fill="#1D2621"/>
</svg>
