<svg width="25" height="25" viewBox="0 0 25 25" fill="none" xmlns="http://www.w3.org/2000/svg">
<path d="M9.5 9.57007V11.5701H7.5V9.57007H5.5V11.5701H3.5V9.57007H1.5V21.5701H3.5V19.5701H5.5V21.5701H7.5V19.5701H9.5V21.5701H11.5V19.5701H13.5V21.5701H15.5V19.5701H17.5V21.5701H19.5V19.5701H21.5V21.5701H23.5V9.57007H21.5V11.5701H19.5V9.57007H17.5V11.5701H15.5V9.57007H13.5V11.5701H11.5V9.57007H9.5ZM3.5 13.5701H5.5V17.5701H3.5V13.5701ZM7.5 13.5701H9.5V17.5701H7.5V13.5701ZM11.5 13.5701H13.5V17.5701H11.5V13.5701ZM15.5 13.5701H17.5V17.5701H15.5V13.5701ZM19.5 13.5701H21.5V17.5701H19.5V13.5701Z" fill="#7AA088"/>
</svg>
