<svg width="48" height="48" viewBox="0 0 48 48" fill="none" xmlns="http://www.w3.org/2000/svg">
<g clip-path="url(#clip0_687_9084)">
<g clip-path="url(#clip1_687_9084)">
<path fill-rule="evenodd" clip-rule="evenodd" d="M24 26.122L29.303 31.425C29.5844 31.7064 29.966 31.8645 30.364 31.8645C30.7619 31.8645 31.1436 31.7064 31.425 31.425C31.7064 31.1436 31.8645 30.7619 31.8645 30.364C31.8645 29.966 31.7064 29.5844 31.425 29.303L26.12 24L31.424 18.697C31.5632 18.5577 31.6737 18.3923 31.749 18.2102C31.8244 18.0282 31.8631 17.8331 31.8631 17.6361C31.8631 17.4391 31.8242 17.2441 31.7488 17.0621C31.6733 16.8801 31.5628 16.7148 31.4235 16.5755C31.2841 16.4362 31.1187 16.3258 30.9367 16.2504C30.7547 16.1751 30.5596 16.1363 30.3626 16.1364C30.1656 16.1364 29.9706 16.1753 29.7886 16.2507C29.6066 16.3261 29.4412 16.4367 29.302 16.576L24 21.879L18.697 16.576C18.5587 16.4327 18.3932 16.3183 18.2102 16.2396C18.0273 16.1609 17.8305 16.1194 17.6313 16.1176C17.4321 16.1158 17.2346 16.1537 17.0502 16.229C16.8658 16.3043 16.6983 16.4156 16.5574 16.5564C16.4165 16.6972 16.305 16.8646 16.2295 17.0489C16.154 17.2332 16.116 17.4307 16.1176 17.6299C16.1192 17.829 16.1605 18.0259 16.2391 18.2089C16.3176 18.392 16.4318 18.5575 16.575 18.696L21.88 24L16.576 29.304C16.4328 29.4424 16.3186 29.608 16.2401 29.791C16.1615 29.9741 16.1202 30.1709 16.1186 30.3701C16.117 30.5693 16.155 30.7668 16.2305 30.9511C16.306 31.1354 16.4175 31.3028 16.5584 31.4436C16.6993 31.5844 16.8668 31.6957 17.0512 31.771C17.2356 31.8463 17.4331 31.8842 17.6323 31.8824C17.8315 31.8805 18.0283 31.8391 18.2112 31.7604C18.3942 31.6817 18.5597 31.5673 18.698 31.424L24 26.122Z" fill="black"/>
</g>
</g>
<defs>
<clipPath id="clip0_687_9084">
<rect x="4" y="4" width="40" height="40" rx="20" fill="white"/>
</clipPath>
<clipPath id="clip1_687_9084">
<rect width="24" height="24" fill="white" transform="translate(12 12)"/>
</clipPath>
</defs>
</svg>
