<svg width="18" height="18" viewBox="0 0 18 18" fill="none" xmlns="http://www.w3.org/2000/svg">
<path d="M16.8939 16.1247H15.3757V2.15702H15.6793C15.9209 2.15702 16.1526 2.06105 16.3234 1.89021C16.4943 1.71938 16.5902 1.48768 16.5902 1.24608C16.5902 1.00449 16.4943 0.772786 16.3234 0.601952C16.1526 0.431118 15.9209 0.335144 15.6793 0.335144H2.31888C2.07729 0.335144 1.84558 0.431118 1.67475 0.601952C1.50392 0.772786 1.40794 1.00449 1.40794 1.24608C1.40794 1.48768 1.50392 1.71938 1.67475 1.89021C1.84558 2.06105 2.07729 2.15702 2.31888 2.15702H2.62253V16.1247H1.1043C0.862702 16.1247 0.631001 16.2207 0.460167 16.3915C0.289333 16.5624 0.193359 16.7941 0.193359 17.0357C0.193359 17.2773 0.289333 17.509 0.460167 17.6798C0.631001 17.8506 0.862702 17.9466 1.1043 17.9466H16.8939C17.1355 17.9466 17.3672 17.8506 17.538 17.6798C17.7089 17.509 17.8048 17.2773 17.8048 17.0357C17.8048 16.7941 17.7089 16.5624 17.538 16.3915C17.3672 16.2207 17.1355 16.1247 16.8939 16.1247ZM4.4444 2.15702H13.5538V16.1247H11.7319V13.3919C11.7319 13.1503 11.6359 12.9186 11.4651 12.7478C11.2943 12.577 11.0626 12.481 10.821 12.481H7.17722C6.93562 12.481 6.70392 12.577 6.53309 12.7478C6.36225 12.9186 6.26628 13.1503 6.26628 13.3919V16.1247H4.4444V2.15702ZM9.91003 16.1247H8.08815V14.3029H9.91003V16.1247ZM5.65899 4.28254C5.65899 4.04095 5.75496 3.80925 5.92579 3.63841C6.09663 3.46758 6.32833 3.3716 6.56992 3.3716H7.48086C7.72246 3.3716 7.95416 3.46758 8.12499 3.63841C8.29583 3.80925 8.3918 4.04095 8.3918 4.28254C8.3918 4.52414 8.29583 4.75584 8.12499 4.92667C7.95416 5.09751 7.72246 5.19348 7.48086 5.19348H6.56992C6.32833 5.19348 6.09663 5.09751 5.92579 4.92667C5.75496 4.75584 5.65899 4.52414 5.65899 4.28254ZM9.60638 4.28254C9.60638 4.04095 9.70236 3.80925 9.87319 3.63841C10.044 3.46758 10.2757 3.3716 10.5173 3.3716H11.4283C11.6699 3.3716 11.9016 3.46758 12.0724 3.63841C12.2432 3.80925 12.3392 4.04095 12.3392 4.28254C12.3392 4.52414 12.2432 4.75584 12.0724 4.92667C11.9016 5.09751 11.6699 5.19348 11.4283 5.19348H10.5173C10.2757 5.19348 10.044 5.09751 9.87319 4.92667C9.70236 4.75584 9.60638 4.52414 9.60638 4.28254ZM5.65899 7.319C5.65899 7.07741 5.75496 6.84571 5.92579 6.67487C6.09663 6.50404 6.32833 6.40806 6.56992 6.40806H7.48086C7.72246 6.40806 7.95416 6.50404 8.12499 6.67487C8.29583 6.84571 8.3918 7.07741 8.3918 7.319C8.3918 7.5606 8.29583 7.7923 8.12499 7.96313C7.95416 8.13397 7.72246 8.22994 7.48086 8.22994H6.56992C6.32833 8.22994 6.09663 8.13397 5.92579 7.96313C5.75496 7.7923 5.65899 7.5606 5.65899 7.319ZM9.60638 7.319C9.60638 7.07741 9.70236 6.84571 9.87319 6.67487C10.044 6.50404 10.2757 6.40806 10.5173 6.40806H11.4283C11.6699 6.40806 11.9016 6.50404 12.0724 6.67487C12.2432 6.84571 12.3392 7.07741 12.3392 7.319C12.3392 7.5606 12.2432 7.7923 12.0724 7.96313C11.9016 8.13397 11.6699 8.22994 11.4283 8.22994H10.5173C10.2757 8.22994 10.044 8.13397 9.87319 7.96313C9.70236 7.7923 9.60638 7.5606 9.60638 7.319ZM5.65899 10.3555C5.65899 10.1139 5.75496 9.88216 5.92579 9.71133C6.09663 9.5405 6.32833 9.44452 6.56992 9.44452H7.48086C7.72246 9.44452 7.95416 9.5405 8.12499 9.71133C8.29583 9.88216 8.3918 10.1139 8.3918 10.3555C8.3918 10.5971 8.29583 10.8288 8.12499 10.9996C7.95416 11.1704 7.72246 11.2664 7.48086 11.2664H6.56992C6.32833 11.2664 6.09663 11.1704 5.92579 10.9996C5.75496 10.8288 5.65899 10.5971 5.65899 10.3555ZM9.60638 10.3555C9.60638 10.1139 9.70236 9.88216 9.87319 9.71133C10.044 9.5405 10.2757 9.44452 10.5173 9.44452H11.4283C11.6699 9.44452 11.9016 9.5405 12.0724 9.71133C12.2432 9.88216 12.3392 10.1139 12.3392 10.3555C12.3392 10.5971 12.2432 10.8288 12.0724 10.9996C11.9016 11.1704 11.6699 11.2664 11.4283 11.2664H10.5173C10.2757 11.2664 10.044 11.1704 9.87319 10.9996C9.70236 10.8288 9.60638 10.5971 9.60638 10.3555Z" fill="#93C0A3"/>
</svg>
