<svg width="48" height="49" viewBox="0 0 48 49" fill="none" xmlns="http://www.w3.org/2000/svg">
<path d="M31.8949 31.1247H30.3766V17.157H30.6803C30.9219 17.157 31.1536 17.061 31.3244 16.8902C31.4952 16.7193 31.5912 16.4876 31.5912 16.246C31.5912 16.0044 31.4952 15.7727 31.3244 15.6019C31.1536 15.4311 30.9219 15.3351 30.6803 15.3351H17.3199C17.0783 15.3351 16.8466 15.4311 16.6757 15.6019C16.5049 15.7727 16.4089 16.0044 16.4089 16.246C16.4089 16.4876 16.5049 16.7193 16.6757 16.8902C16.8466 17.061 17.0783 17.157 17.3199 17.157H17.6235V31.1247H16.1053C15.8637 31.1247 15.632 31.2206 15.4611 31.3915C15.2903 31.5623 15.1943 31.794 15.1943 32.0356C15.1943 32.2772 15.2903 32.5089 15.4611 32.6797C15.632 32.8506 15.8637 32.9465 16.1053 32.9465H31.8949C32.1365 32.9465 32.3682 32.8506 32.539 32.6797C32.7098 32.5089 32.8058 32.2772 32.8058 32.0356C32.8058 31.794 32.7098 31.5623 32.539 31.3915C32.3682 31.2206 32.1365 31.1247 31.8949 31.1247ZM19.4454 17.157H28.5548V31.1247H26.7329V28.3919C26.7329 28.1503 26.6369 27.9186 26.4661 27.7477C26.2952 27.5769 26.0635 27.4809 25.8219 27.4809H22.1782C21.9366 27.4809 21.7049 27.5769 21.5341 27.7477C21.3632 27.9186 21.2673 28.1503 21.2673 28.3919V31.1247H19.4454V17.157ZM24.911 31.1247H23.0891V29.3028H24.911V31.1247ZM20.66 19.2825C20.66 19.0409 20.7559 18.8092 20.9268 18.6384C21.0976 18.4675 21.3293 18.3715 21.5709 18.3715H22.4818C22.7234 18.3715 22.9551 18.4675 23.126 18.6384C23.2968 18.8092 23.3928 19.0409 23.3928 19.2825C23.3928 19.5241 23.2968 19.7558 23.126 19.9266C22.9551 20.0974 22.7234 20.1934 22.4818 20.1934H21.5709C21.3293 20.1934 21.0976 20.0974 20.9268 19.9266C20.7559 19.7558 20.66 19.5241 20.66 19.2825ZM24.6074 19.2825C24.6074 19.0409 24.7033 18.8092 24.8742 18.6384C25.045 18.4675 25.2767 18.3715 25.5183 18.3715H26.4292C26.6708 18.3715 26.9025 18.4675 27.0734 18.6384C27.2442 18.8092 27.3402 19.0409 27.3402 19.2825C27.3402 19.5241 27.2442 19.7558 27.0734 19.9266C26.9025 20.0974 26.6708 20.1934 26.4292 20.1934H25.5183C25.2767 20.1934 25.045 20.0974 24.8742 19.9266C24.7033 19.7558 24.6074 19.5241 24.6074 19.2825ZM20.66 22.3189C20.66 22.0773 20.7559 21.8456 20.9268 21.6748C21.0976 21.504 21.3293 21.408 21.5709 21.408H22.4818C22.7234 21.408 22.9551 21.504 23.126 21.6748C23.2968 21.8456 23.3928 22.0773 23.3928 22.3189C23.3928 22.5605 23.2968 22.7922 23.126 22.9631C22.9551 23.1339 22.7234 23.2299 22.4818 23.2299H21.5709C21.3293 23.2299 21.0976 23.1339 20.9268 22.9631C20.7559 22.7922 20.66 22.5605 20.66 22.3189ZM24.6074 22.3189C24.6074 22.0773 24.7033 21.8456 24.8742 21.6748C25.045 21.504 25.2767 21.408 25.5183 21.408H26.4292C26.6708 21.408 26.9025 21.504 27.0734 21.6748C27.2442 21.8456 27.3402 22.0773 27.3402 22.3189C27.3402 22.5605 27.2442 22.7922 27.0734 22.9631C26.9025 23.1339 26.6708 23.2299 26.4292 23.2299H25.5183C25.2767 23.2299 25.045 23.1339 24.8742 22.9631C24.7033 22.7922 24.6074 22.5605 24.6074 22.3189ZM20.66 25.3554C20.66 25.1138 20.7559 24.8821 20.9268 24.7113C21.0976 24.5404 21.3293 24.4445 21.5709 24.4445H22.4818C22.7234 24.4445 22.9551 24.5404 23.126 24.7113C23.2968 24.8821 23.3928 25.1138 23.3928 25.3554C23.3928 25.597 23.2968 25.8287 23.126 25.9995C22.9551 26.1704 22.7234 26.2663 22.4818 26.2663H21.5709C21.3293 26.2663 21.0976 26.1704 20.9268 25.9995C20.7559 25.8287 20.66 25.597 20.66 25.3554ZM24.6074 25.3554C24.6074 25.1138 24.7033 24.8821 24.8742 24.7113C25.045 24.5404 25.2767 24.4445 25.5183 24.4445H26.4292C26.6708 24.4445 26.9025 24.5404 27.0734 24.7113C27.2442 24.8821 27.3402 25.1138 27.3402 25.3554C27.3402 25.597 27.2442 25.8287 27.0734 25.9995C26.9025 26.1704 26.6708 26.2663 26.4292 26.2663H25.5183C25.2767 26.2663 25.045 26.1704 24.8742 25.9995C24.7033 25.8287 24.6074 25.597 24.6074 25.3554Z" fill="#1D2621"/>
</svg>
