<svg width="48" height="49" viewBox="0 0 48 49" fill="none" xmlns="http://www.w3.org/2000/svg">
<path d="M31.8939 31.1247H30.3757V17.157H30.6793C30.9209 17.157 31.1526 17.061 31.3234 16.8902C31.4943 16.7194 31.5902 16.4877 31.5902 16.2461C31.5902 16.0045 31.4943 15.7728 31.3234 15.602C31.1526 15.4311 30.9209 15.3351 30.6793 15.3351H17.3189C17.0773 15.3351 16.8456 15.4311 16.6748 15.602C16.5039 15.7728 16.4079 16.0045 16.4079 16.2461C16.4079 16.4877 16.5039 16.7194 16.6748 16.8902C16.8456 17.061 17.0773 17.157 17.3189 17.157H17.6225V31.1247H16.1043C15.8627 31.1247 15.631 31.2207 15.4602 31.3915C15.2893 31.5624 15.1934 31.7941 15.1934 32.0357C15.1934 32.2773 15.2893 32.509 15.4602 32.6798C15.631 32.8506 15.8627 32.9466 16.1043 32.9466H31.8939C32.1355 32.9466 32.3672 32.8506 32.538 32.6798C32.7089 32.509 32.8048 32.2773 32.8048 32.0357C32.8048 31.7941 32.7089 31.5624 32.538 31.3915C32.3672 31.2207 32.1355 31.1247 31.8939 31.1247ZM19.4444 17.157H28.5538V31.1247H26.7319V28.3919C26.7319 28.1503 26.6359 27.9186 26.4651 27.7478C26.2943 27.577 26.0626 27.481 25.821 27.481H22.1772C21.9356 27.481 21.7039 27.577 21.5331 27.7478C21.3623 27.9186 21.2663 28.1503 21.2663 28.3919V31.1247H19.4444V17.157ZM24.91 31.1247H23.0882V29.3029H24.91V31.1247ZM20.659 19.2825C20.659 19.0409 20.755 18.8092 20.9258 18.6384C21.0966 18.4676 21.3283 18.3716 21.5699 18.3716H22.4809C22.7225 18.3716 22.9542 18.4676 23.125 18.6384C23.2958 18.8092 23.3918 19.0409 23.3918 19.2825C23.3918 19.5241 23.2958 19.7558 23.125 19.9267C22.9542 20.0975 22.7225 20.1935 22.4809 20.1935H21.5699C21.3283 20.1935 21.0966 20.0975 20.9258 19.9267C20.755 19.7558 20.659 19.5241 20.659 19.2825ZM24.6064 19.2825C24.6064 19.0409 24.7024 18.8092 24.8732 18.6384C25.044 18.4676 25.2757 18.3716 25.5173 18.3716H26.4283C26.6699 18.3716 26.9016 18.4676 27.0724 18.6384C27.2432 18.8092 27.3392 19.0409 27.3392 19.2825C27.3392 19.5241 27.2432 19.7558 27.0724 19.9267C26.9016 20.0975 26.6699 20.1935 26.4283 20.1935H25.5173C25.2757 20.1935 25.044 20.0975 24.8732 19.9267C24.7024 19.7558 24.6064 19.5241 24.6064 19.2825ZM20.659 22.319C20.659 22.0774 20.755 21.8457 20.9258 21.6749C21.0966 21.504 21.3283 21.4081 21.5699 21.4081H22.4809C22.7225 21.4081 22.9542 21.504 23.125 21.6749C23.2958 21.8457 23.3918 22.0774 23.3918 22.319C23.3918 22.5606 23.2958 22.7923 23.125 22.9631C22.9542 23.134 22.7225 23.2299 22.4809 23.2299H21.5699C21.3283 23.2299 21.0966 23.134 20.9258 22.9631C20.755 22.7923 20.659 22.5606 20.659 22.319ZM24.6064 22.319C24.6064 22.0774 24.7024 21.8457 24.8732 21.6749C25.044 21.504 25.2757 21.4081 25.5173 21.4081H26.4283C26.6699 21.4081 26.9016 21.504 27.0724 21.6749C27.2432 21.8457 27.3392 22.0774 27.3392 22.319C27.3392 22.5606 27.2432 22.7923 27.0724 22.9631C26.9016 23.134 26.6699 23.2299 26.4283 23.2299H25.5173C25.2757 23.2299 25.044 23.134 24.8732 22.9631C24.7024 22.7923 24.6064 22.5606 24.6064 22.319ZM20.659 25.3555C20.659 25.1139 20.755 24.8822 20.9258 24.7113C21.0966 24.5405 21.3283 24.4445 21.5699 24.4445H22.4809C22.7225 24.4445 22.9542 24.5405 23.125 24.7113C23.2958 24.8822 23.3918 25.1139 23.3918 25.3555C23.3918 25.5971 23.2958 25.8288 23.125 25.9996C22.9542 26.1704 22.7225 26.2664 22.4809 26.2664H21.5699C21.3283 26.2664 21.0966 26.1704 20.9258 25.9996C20.755 25.8288 20.659 25.5971 20.659 25.3555ZM24.6064 25.3555C24.6064 25.1139 24.7024 24.8822 24.8732 24.7113C25.044 24.5405 25.2757 24.4445 25.5173 24.4445H26.4283C26.6699 24.4445 26.9016 24.5405 27.0724 24.7113C27.2432 24.8822 27.3392 25.1139 27.3392 25.3555C27.3392 25.5971 27.2432 25.8288 27.0724 25.9996C26.9016 26.1704 26.6699 26.2664 26.4283 26.2664H25.5173C25.2757 26.2664 25.044 26.1704 24.8732 25.9996C24.7024 25.8288 24.6064 25.5971 24.6064 25.3555Z" fill="#93C0A3"/>
</svg>
