<svg width="49" height="46" viewBox="0 0 49 46" fill="none" xmlns="http://www.w3.org/2000/svg">
<path d="M24.3152 30.375C27.4176 30.375 30.0407 28.55 31.1192 26H17.5111C18.5763 28.55 21.2127 30.375 24.3152 30.375ZM19.6548 22.25C20.1845 22.25 20.6926 22.0525 21.0671 21.7009C21.4417 21.3492 21.6521 20.8723 21.6521 20.375C21.6521 19.8777 21.4417 19.4008 21.0671 19.0492C20.6926 18.6976 20.1845 18.5 19.6548 18.5C19.1251 18.5 18.6171 18.6976 18.2425 19.0492C17.868 19.4008 17.6575 19.8777 17.6575 20.375C17.6575 20.8723 17.868 21.3492 18.2425 21.7009C18.6171 22.0525 19.1251 22.25 19.6548 22.25ZM28.9755 22.25C29.5052 22.25 30.0132 22.0525 30.3878 21.7009C30.7623 21.3492 30.9728 20.8723 30.9728 20.375C30.9728 19.8777 30.7623 19.4008 30.3878 19.0492C30.0132 18.6976 29.5052 18.5 28.9755 18.5C28.4458 18.5 27.9378 18.6976 27.5632 19.0492C27.1886 19.4008 26.9782 19.8777 26.9782 20.375C26.9782 20.8723 27.1886 21.3492 27.5632 21.7009C27.9378 22.0525 28.4458 22.25 28.9755 22.25ZM24.3152 33.5C21.49 33.5 18.7806 32.4465 16.7829 30.5711C14.7853 28.6957 13.663 26.1522 13.663 23.5C13.663 20.8479 14.7853 18.3043 16.7829 16.429C18.7806 14.5536 21.49 13.5 24.3152 13.5C27.1403 13.5 29.8497 14.5536 31.8474 16.429C33.8451 18.3043 34.9673 20.8479 34.9673 23.5C34.9673 26.1522 33.8451 28.6957 31.8474 30.5711C29.8497 32.4465 27.1403 33.5 24.3152 33.5ZM24.3152 11C16.9518 11 10.9999 16.625 10.9999 23.5C10.9999 26.8152 12.4028 29.9947 14.8999 32.3389C16.1363 33.4996 17.6042 34.4203 19.2196 35.0485C20.8351 35.6767 22.5666 36 24.3152 36C27.8466 36 31.2333 34.6831 33.7304 32.3389C36.2275 29.9947 37.6304 26.8152 37.6304 23.5C37.6304 21.8585 37.286 20.2331 36.6168 18.7165C35.9477 17.1999 34.9669 15.8219 33.7304 14.6612C32.494 13.5005 31.0261 12.5797 29.4107 11.9515C27.7952 11.3234 26.0637 11 24.3152 11Z" fill="#1D2621"/>
</svg>
