<svg width="53" height="60" viewBox="0 0 53 60" fill="none" xmlns="http://www.w3.org/2000/svg">
<path d="M27 9.99997C29.7578 9.99997 32.4885 10.5173 35.0364 11.5224C37.5842 12.5275 39.8992 14.0007 41.8492 15.8578C43.7993 17.715 45.3461 19.9198 46.4015 22.3463C47.4568 24.7728 48 27.3735 48 30C48 35.3043 45.7875 40.3914 41.8492 44.1421C37.911 47.8928 32.5695 50 27 50C24.2422 50 21.5115 49.4827 18.9636 48.4776C16.4158 47.4725 14.1008 45.9993 12.1508 44.1421C8.21249 40.3914 6 35.3043 6 30C6 24.6956 8.21249 19.6086 12.1508 15.8578C16.089 12.1071 21.4305 9.99997 27 9.99997ZM18.6 21.42V28.1L33.594 30L18.6 31.9V38.58L39.6 30L18.6 21.42Z" fill="#7AA088"/>
</svg>
