<svg width="49" height="49" viewBox="0 0 49 49" fill="none" xmlns="http://www.w3.org/2000/svg">
<path fill-rule="evenodd" clip-rule="evenodd" d="M31.5 16.1409H30.5V14.1409H28.5V16.1409H20.5V14.1409H18.5V16.1409H17.5C16.39 16.1409 15.5 17.0409 15.5 18.1409V32.1409C15.5 33.2409 16.39 34.1409 17.5 34.1409H31.5C32.6 34.1409 33.5 33.2409 33.5 32.1409V18.1409C33.5 17.0409 32.6 16.1409 31.5 16.1409ZM31.5 32.1409H17.5V21.1409H31.5V32.1409ZM19 25.1409C19 23.7609 20.12 22.6409 21.5 22.6409C22.88 22.6409 24 23.7609 24 25.1409C24 26.5209 22.88 27.6409 21.5 27.6409C20.12 27.6409 19 26.5209 19 25.1409Z" fill="#1D2621"/>
</svg>
