<svg width="49" height="49" viewBox="0 0 49 49" fill="none" xmlns="http://www.w3.org/2000/svg">
<path d="M33.75 24.1409H21.395M17.034 24.1409H15.25M17.034 24.1409C17.034 23.5627 17.2637 23.0082 17.6725 22.5994C18.0813 22.1906 18.6358 21.9609 19.214 21.9609C19.7922 21.9609 20.3467 22.1906 20.7555 22.5994C21.1643 23.0082 21.394 23.5627 21.394 24.1409C21.394 24.7191 21.1643 25.2735 20.7555 25.6824C20.3467 26.0912 19.7922 26.3209 19.214 26.3209C18.6358 26.3209 18.0813 26.0912 17.6725 25.6824C17.2637 25.2735 17.034 24.7191 17.034 24.1409ZM33.75 30.7479H28.002M28.002 30.7479C28.002 31.3262 27.7718 31.8813 27.3628 32.2902C26.9539 32.6992 26.3993 32.9289 25.821 32.9289C25.2428 32.9289 24.6883 32.6982 24.2795 32.2894C23.8707 31.8805 23.641 31.3261 23.641 30.7479M28.002 30.7479C28.002 30.1696 27.7718 29.6155 27.3628 29.2065C26.9539 28.7976 26.3993 28.5679 25.821 28.5679C25.2428 28.5679 24.6883 28.7976 24.2795 29.2064C23.8707 29.6152 23.641 30.1697 23.641 30.7479M23.641 30.7479H15.25M33.75 17.5339H30.645M26.284 17.5339H15.25M26.284 17.5339C26.284 16.9557 26.5137 16.4012 26.9225 15.9924C27.3313 15.5836 27.8858 15.3539 28.464 15.3539C28.7503 15.3539 29.0338 15.4103 29.2983 15.5198C29.5627 15.6294 29.8031 15.79 30.0055 15.9924C30.2079 16.1948 30.3685 16.4351 30.4781 16.6996C30.5876 16.9641 30.644 17.2476 30.644 17.5339C30.644 17.8202 30.5876 18.1036 30.4781 18.3681C30.3685 18.6326 30.2079 18.8729 30.0055 19.0754C29.8031 19.2778 29.5627 19.4384 29.2983 19.5479C29.0338 19.6575 28.7503 19.7139 28.464 19.7139C27.8858 19.7139 27.3313 19.4842 26.9225 19.0754C26.5137 18.6665 26.284 18.1121 26.284 17.5339Z" stroke="#1D2621" stroke-width="1.5" stroke-miterlimit="10" stroke-linecap="round"/>
</svg>
