<svg width="22" height="17" viewBox="0 0 22 17" fill="none" xmlns="http://www.w3.org/2000/svg">
<path d="M18.0999 6.80087C19.2109 8.11487 18.9799 9.72287 18.9799 11.1409C18.9799 15.0469 13.7129 16.1409 10.9999 16.1409C8.28693 16.1409 3.01993 15.0469 3.01993 11.1409C3.01993 9.72287 2.78893 8.11487 3.89993 6.80087M18.0999 6.80087C17.9049 6.57087 17.6699 6.35087 17.3839 6.14087M18.0999 6.80087C18.7999 7.20387 18.9789 5.69587 18.9799 5.20287V3.32887C18.9799 1.70387 17.8629 1.14087 16.9049 1.14087C15.9479 1.14087 14.0319 2.70387 13.3939 2.70387C12.6279 2.70387 12.4799 2.54687 10.9999 2.54687C9.51993 2.54687 9.37193 2.70387 8.60593 2.70387C7.96793 2.70387 6.05193 1.14087 5.09493 1.14087C4.13693 1.14087 3.01993 1.70387 3.01993 3.32887V5.20387C3.02193 5.69587 3.19993 7.20387 3.89993 6.80087M3.89993 6.80087C4.09493 6.57087 4.32993 6.35087 4.61593 6.14087" stroke="#93C0A3" stroke-width="1.7" stroke-linecap="round"/>
<path d="M11.8253 12.1409C11.8253 12.3139 11.4643 12.4539 11.0183 12.4539C10.5733 12.4539 10.2123 12.3139 10.2123 12.1409C10.2123 11.9679 10.5733 11.8289 11.0183 11.8289C11.4643 11.8289 11.8253 11.9689 11.8253 12.1409ZM14.4993 9.73486C14.4993 10.1659 14.2823 10.5159 14.0153 10.5159C13.7483 10.5159 13.5312 10.1659 13.5312 9.73486C13.5312 9.30286 13.7483 8.95386 14.0153 8.95386C14.2823 8.95386 14.4993 9.30486 14.4993 9.73486ZM8.49925 9.73486C8.49925 10.1659 8.28225 10.5159 8.01525 10.5159C7.74825 10.5159 7.53125 10.1659 7.53125 9.73486C7.53125 9.30286 7.74825 8.95386 8.01525 8.95386C8.28225 8.95386 8.49925 9.30486 8.49925 9.73486Z" stroke="#93C0A3" stroke-width="1.7"/>
<path d="M21 11.6099C20.517 11.2969 18.42 10.5159 17.613 10.5159M19.387 14.1099C18.903 13.7969 17.774 13.0159 16.967 13.0159M1 11.6099C1.484 11.2969 3.58 10.5159 4.387 10.5159M2.613 14.1099C3.097 13.7969 4.226 13.0159 5.033 13.0159" stroke="#93C0A3" stroke-width="1.7" stroke-linecap="round"/>
</svg>
