<svg width="48" height="49" viewBox="0 0 48 49" fill="none" xmlns="http://www.w3.org/2000/svg">
<path d="M31.0999 22.8009C32.2109 24.1149 31.9799 25.7229 31.9799 27.1409C31.9799 31.0469 26.7129 32.1409 23.9999 32.1409C21.2869 32.1409 16.0199 31.0469 16.0199 27.1409C16.0199 25.7229 15.7889 24.1149 16.8999 22.8009M31.0999 22.8009C30.9049 22.5709 30.6699 22.3509 30.3839 22.1409M31.0999 22.8009C31.7999 23.2039 31.9789 21.6959 31.9799 21.2029V19.3289C31.9799 17.7039 30.8629 17.1409 29.9049 17.1409C28.9479 17.1409 27.0319 18.7039 26.3939 18.7039C25.6279 18.7039 25.4799 18.5469 23.9999 18.5469C22.5199 18.5469 22.3719 18.7039 21.6059 18.7039C20.9679 18.7039 19.0519 17.1409 18.0949 17.1409C17.1369 17.1409 16.0199 17.7039 16.0199 19.3289V21.2039C16.0219 21.6959 16.1999 23.2039 16.8999 22.8009M16.8999 22.8009C17.0949 22.5709 17.3299 22.3509 17.6159 22.1409" stroke="#1D2621" stroke-width="1.7" stroke-linecap="round"/>
<path d="M24.8262 28.1409C24.8262 28.3139 24.4652 28.4539 24.0192 28.4539C23.5742 28.4539 23.2132 28.3139 23.2132 28.1409C23.2132 27.9679 23.5742 27.8289 24.0192 27.8289C24.4652 27.8289 24.8262 27.9689 24.8262 28.1409ZM27.5002 25.7349C27.5002 26.1659 27.2832 26.5159 27.0162 26.5159C26.7492 26.5159 26.5322 26.1659 26.5322 25.7349C26.5322 25.3029 26.7492 24.9539 27.0162 24.9539C27.2832 24.9539 27.5002 25.3049 27.5002 25.7349ZM21.5002 25.7349C21.5002 26.1659 21.2832 26.5159 21.0162 26.5159C20.7492 26.5159 20.5322 26.1659 20.5322 25.7349C20.5322 25.3029 20.7492 24.9539 21.0162 24.9539C21.2832 24.9539 21.5002 25.3049 21.5002 25.7349Z" stroke="#1D2621" stroke-width="1.7"/>
<path d="M34 27.6099C33.517 27.2969 31.42 26.5159 30.613 26.5159M32.387 30.1099C31.903 29.7969 30.774 29.0159 29.967 29.0159M14 27.6099C14.484 27.2969 16.58 26.5159 17.387 26.5159M15.613 30.1099C16.097 29.7969 17.226 29.0159 18.033 29.0159" stroke="#1D2621" stroke-width="1.7" stroke-linecap="round"/>
</svg>
