<svg width="49" height="49" viewBox="0 0 49 49" fill="none" xmlns="http://www.w3.org/2000/svg">
<path d="M24 11.1409C20.6078 11.1409 20.1813 11.1565 18.8484 11.2159C17.5156 11.2784 16.6078 11.4877 15.8125 11.7971C14.9779 12.1101 14.2221 12.6024 13.5984 13.2393C12.9616 13.863 12.4693 14.6188 12.1562 15.4534C11.8469 16.2471 11.6359 17.1565 11.575 18.4846C11.5156 19.8206 11.5 20.2456 11.5 23.6424C11.5 27.0362 11.5156 27.4612 11.575 28.794C11.6375 30.1252 11.8469 31.0331 12.1562 31.8284C12.4766 32.6502 12.9031 33.3471 13.5984 34.0424C14.2922 34.7377 14.9891 35.1659 15.8109 35.4846C16.6078 35.794 17.5141 36.0049 18.8453 36.0659C20.1797 36.1252 20.6047 36.1409 24 36.1409C27.3953 36.1409 27.8188 36.1252 29.1531 36.0659C30.4828 36.0034 31.3938 35.794 32.1891 35.4846C33.0231 35.1714 33.7784 34.6791 34.4016 34.0424C35.0969 33.3471 35.5234 32.6502 35.8437 31.8284C36.1516 31.0331 36.3625 30.1252 36.425 28.794C36.4844 27.4612 36.5 27.0362 36.5 23.6409C36.5 20.2456 36.4844 19.8206 36.425 18.4862C36.3625 17.1565 36.1516 16.2471 35.8437 15.4534C35.5307 14.6188 35.0384 13.863 34.4016 13.2393C33.7779 12.6024 33.0221 12.1101 32.1875 11.7971C31.3906 11.4877 30.4812 11.2768 29.1516 11.2159C27.8172 11.1565 27.3938 11.1409 23.9969 11.1409H24ZM22.8797 13.394H24.0016C27.3391 13.394 27.7344 13.4049 29.0516 13.4659C30.2703 13.5206 30.9328 13.7252 31.3734 13.8956C31.9562 14.1221 32.3734 14.394 32.8109 14.8315C33.2484 15.269 33.5188 15.6846 33.7453 16.269C33.9172 16.7081 34.1203 17.3706 34.175 18.5893C34.2359 19.9065 34.2484 20.3018 34.2484 23.6377C34.2484 26.9737 34.2359 27.3706 34.175 28.6877C34.1203 29.9065 33.9156 30.5674 33.7453 31.0081C33.5435 31.5501 33.2238 32.0405 32.8094 32.444C32.3719 32.8815 31.9563 33.1518 31.3719 33.3784C30.9344 33.5502 30.2719 33.7534 29.0516 33.8096C27.7344 33.869 27.3391 33.8831 24.0016 33.8831C20.6641 33.8831 20.2672 33.869 18.95 33.8096C17.7313 33.7534 17.0703 33.5502 16.6297 33.3784C16.0872 33.1772 15.5962 32.8581 15.1922 32.444C14.777 32.0402 14.4568 31.5492 14.2547 31.0065C14.0844 30.5674 13.8797 29.9049 13.825 28.6862C13.7656 27.369 13.7531 26.9737 13.7531 23.6346C13.7531 20.2956 13.7656 19.9034 13.825 18.5862C13.8813 17.3674 14.0844 16.7049 14.2563 16.2643C14.4828 15.6815 14.7547 15.2643 15.1922 14.8268C15.6297 14.3893 16.0453 14.119 16.6297 13.8924C17.0703 13.7206 17.7313 13.5174 18.95 13.4612C20.1031 13.4081 20.55 13.3924 22.8797 13.3909V13.394ZM30.6734 15.469C30.4765 15.469 30.2814 15.5078 30.0994 15.5832C29.9174 15.6586 29.7521 15.769 29.6128 15.9083C29.4735 16.0476 29.363 16.213 29.2876 16.395C29.2122 16.577 29.1734 16.772 29.1734 16.969C29.1734 17.166 29.2122 17.361 29.2876 17.543C29.363 17.725 29.4735 17.8904 29.6128 18.0297C29.7521 18.1689 29.9174 18.2794 30.0994 18.3548C30.2814 18.4302 30.4765 18.469 30.6734 18.469C31.0713 18.469 31.4528 18.311 31.7341 18.0297C32.0154 17.7483 32.1734 17.3668 32.1734 16.969C32.1734 16.5712 32.0154 16.1896 31.7341 15.9083C31.4528 15.627 31.0713 15.469 30.6734 15.469ZM24.0016 17.2221C23.1501 17.2088 22.3045 17.3651 21.514 17.6817C20.7235 17.9984 20.0039 18.4691 19.3971 19.0665C18.7903 19.664 18.3084 20.3761 17.9794 21.1616C17.6505 21.947 17.4811 22.7901 17.4811 23.6416C17.4811 24.4932 17.6505 25.3363 17.9794 26.1217C18.3084 26.9072 18.7903 27.6193 19.3971 28.2168C20.0039 28.8142 20.7235 29.2849 21.514 29.6016C22.3045 29.9182 23.1501 30.0745 24.0016 30.0612C25.6868 30.0349 27.2941 29.347 28.4765 28.1459C29.659 26.9449 30.3217 25.3271 30.3217 23.6416C30.3217 21.9562 29.659 20.3384 28.4765 19.1374C27.2941 17.9363 25.6868 17.2484 24.0016 17.2221ZM24.0016 19.4737C24.5488 19.4737 25.0907 19.5815 25.5963 19.7909C26.1019 20.0003 26.5613 20.3073 26.9482 20.6942C27.3352 21.0812 27.6421 21.5406 27.8515 22.0462C28.061 22.5517 28.1688 23.0936 28.1688 23.6409C28.1688 24.1881 28.061 24.73 27.8515 25.2356C27.6421 25.7412 27.3352 26.2006 26.9482 26.5875C26.5613 26.9745 26.1019 27.2814 25.5963 27.4908C25.0907 27.7003 24.5488 27.8081 24.0016 27.8081C22.8964 27.8081 21.8364 27.369 21.0549 26.5875C20.2734 25.806 19.8344 24.7461 19.8344 23.6409C19.8344 22.5357 20.2734 21.4757 21.0549 20.6942C21.8364 19.9127 22.8964 19.4737 24.0016 19.4737Z" fill="#1D2621"/>
</svg>
