<svg width="64" height="64" viewBox="0 0 64 64" fill="none" xmlns="http://www.w3.org/2000/svg">
<g clip-path="url(#clip0_82_14628)">
<path d="M32 0C14.327 0 0 14.327 0 32C0 49.674 14.327 64 32 64C49.674 64 64 49.674 64 32C64 14.327 49.674 0 32 0ZM32 60.063C16.561 60.063 4 47.439 4 31.9999C4 16.5609 16.561 3.99988 32 3.99988C47.439 3.99988 60 16.5609 60 31.9999C60 47.4388 47.439 60.063 32 60.063ZM46 30H34V18C34 16.896 33.104 16 32 16C30.896 16 30 16.896 30 18V30H18C16.896 30 16 30.896 16 32C16 33.104 16.896 34 18 34H30V46C30 47.104 30.896 48 32 48C33.104 48 34 47.104 34 46V34H46C47.104 34 48 33.104 48 32C48 30.896 47.104 30 46 30Z" fill="#1D2621"/>
</g>
<defs>
<clipPath id="clip0_82_14628">
<rect width="64" height="64" fill="white"/>
</clipPath>
</defs>
</svg>
