<svg width="49" height="49" viewBox="0 0 49 49" fill="none" xmlns="http://www.w3.org/2000/svg">
<path d="M35.5 11.1409H12.5C11.9469 11.1409 11.5 11.5877 11.5 12.1409V35.1409C11.5 35.694 11.9469 36.1409 12.5 36.1409H35.5C36.0531 36.1409 36.5 35.694 36.5 35.1409V12.1409C36.5 11.5877 36.0531 11.1409 35.5 11.1409ZM34.5 34.1409H28.7469V26.4596H31.9969L32.4844 22.6877H28.7469V20.2784C28.7469 19.1846 29.05 18.4409 30.6156 18.4409H32.6125V15.0659C32.2656 15.019 31.0813 14.9159 29.7 14.9159C26.8188 14.9159 24.8469 16.6752 24.8469 19.9034V22.6846H21.5906V26.4565H24.85V34.1409H13.5V13.1409H34.5V34.1409Z" fill="#1D2621"/>
</svg>
