<svg width="25" height="25" viewBox="0 0 25 25" fill="none" xmlns="http://www.w3.org/2000/svg">
<path d="M12.5 -0.00976562C9.10781 -0.00976562 8.68125 0.00585938 7.34844 0.0652344C6.01562 0.127734 5.10781 0.337109 4.3125 0.646484C3.47788 0.959493 2.7221 1.45179 2.09844 2.08867C1.46156 2.71233 0.969259 3.46812 0.65625 4.30273C0.346875 5.09648 0.135937 6.00586 0.075 7.33398C0.015625 8.66992 0 9.09492 0 12.4918C0 15.8855 0.015625 16.3105 0.075 17.6434C0.1375 18.9746 0.346875 19.8824 0.65625 20.6777C0.976562 21.4996 1.40313 22.1965 2.09844 22.8918C2.79219 23.5871 3.48906 24.0152 4.31094 24.334C5.10781 24.6434 6.01406 24.8543 7.34531 24.9152C8.67969 24.9746 9.10469 24.9902 12.5 24.9902C15.8953 24.9902 16.3188 24.9746 17.6531 24.9152C18.9828 24.8527 19.8938 24.6434 20.6891 24.334C21.5231 24.0208 22.2784 23.5285 22.9016 22.8918C23.5969 22.1965 24.0234 21.4996 24.3438 20.6777C24.6516 19.8824 24.8625 18.9746 24.925 17.6434C24.9844 16.3105 25 15.8855 25 12.4902C25 9.09492 24.9844 8.66992 24.925 7.33555C24.8625 6.00586 24.6516 5.09648 24.3438 4.30273C24.0307 3.46812 23.5384 2.71233 22.9016 2.08867C22.2779 1.45179 21.5221 0.959493 20.6875 0.646484C19.8906 0.337109 18.9813 0.126172 17.6516 0.0652344C16.3172 0.00585938 15.8938 -0.00976562 12.4969 -0.00976562H12.5ZM11.3797 2.24336H12.5016C15.8391 2.24336 16.2344 2.2543 17.5516 2.31523C18.7703 2.36992 19.4328 2.57461 19.8734 2.74492C20.4562 2.97148 20.8734 3.24336 21.3109 3.68086C21.7484 4.11836 22.0188 4.53398 22.2453 5.11836C22.4172 5.55742 22.6203 6.21992 22.675 7.43867C22.7359 8.75586 22.7484 9.15117 22.7484 12.4871C22.7484 15.823 22.7359 16.2199 22.675 17.5371C22.6203 18.7559 22.4156 19.4168 22.2453 19.8574C22.0435 20.3995 21.7238 20.8899 21.3094 21.2934C20.8719 21.7309 20.4563 22.0012 19.8719 22.2277C19.4344 22.3996 18.7719 22.6027 17.5516 22.659C16.2344 22.7184 15.8391 22.7324 12.5016 22.7324C9.16406 22.7324 8.76719 22.7184 7.45 22.659C6.23125 22.6027 5.57031 22.3996 5.12969 22.2277C4.58724 22.0266 4.09625 21.7074 3.69219 21.2934C3.27699 20.8896 2.95676 20.3986 2.75469 19.8559C2.58437 19.4168 2.37969 18.7543 2.325 17.5355C2.26562 16.2184 2.25312 15.823 2.25312 12.484C2.25312 9.14492 2.26562 8.75273 2.325 7.43555C2.38125 6.2168 2.58438 5.5543 2.75625 5.11367C2.98281 4.53086 3.25469 4.11367 3.69219 3.67617C4.12969 3.23867 4.54531 2.96836 5.12969 2.7418C5.57031 2.56992 6.23125 2.3668 7.45 2.31055C8.60313 2.25742 9.05 2.2418 11.3797 2.24023V2.24336ZM19.1734 4.31836C18.9765 4.31836 18.7814 4.35716 18.5994 4.43254C18.4174 4.50792 18.2521 4.61841 18.1128 4.7577C17.9735 4.89699 17.863 5.06235 17.7876 5.24433C17.7122 5.42632 17.6734 5.62138 17.6734 5.81836C17.6734 6.01534 17.7122 6.2104 17.7876 6.39238C17.863 6.57437 17.9735 6.73973 18.1128 6.87902C18.2521 7.01831 18.4174 7.1288 18.5994 7.20418C18.7814 7.27956 18.9765 7.31836 19.1734 7.31836C19.5713 7.31836 19.9528 7.16032 20.2341 6.87902C20.5154 6.59771 20.6734 6.21618 20.6734 5.81836C20.6734 5.42053 20.5154 5.039 20.2341 4.7577C19.9528 4.47639 19.5713 4.31836 19.1734 4.31836ZM12.5016 6.07148C11.6501 6.0582 10.8045 6.21443 10.014 6.53108C9.22353 6.84773 8.50393 7.31847 7.89711 7.9159C7.29029 8.51332 6.80838 9.2255 6.47944 10.011C6.1505 10.7964 5.98109 11.6395 5.98109 12.491C5.98109 13.3426 6.1505 14.1856 6.47944 14.9711C6.80838 15.7565 7.29029 16.4687 7.89711 17.0661C8.50393 17.6636 9.22353 18.1343 10.014 18.451C10.8045 18.7676 11.6501 18.9238 12.5016 18.9105C14.1868 18.8843 15.7941 18.1963 16.9765 16.9953C18.159 15.7943 18.8217 14.1764 18.8217 12.491C18.8217 10.8056 18.159 9.18775 16.9765 7.98672C15.7941 6.78568 14.1868 6.09778 12.5016 6.07148ZM12.5016 8.32305C13.0488 8.32305 13.5907 8.43083 14.0963 8.64025C14.6019 8.84968 15.0613 9.15663 15.4482 9.54359C15.8352 9.93055 16.1421 10.3899 16.3515 10.8955C16.561 11.4011 16.6688 11.943 16.6688 12.4902C16.6688 13.0375 16.561 13.5794 16.3515 14.0849C16.1421 14.5905 15.8352 15.0499 15.4482 15.4369C15.0613 15.8238 14.6019 16.1308 14.0963 16.3402C13.5907 16.5496 13.0488 16.6574 12.5016 16.6574C11.3964 16.6574 10.3364 16.2184 9.55492 15.4369C8.77342 14.6554 8.33438 13.5954 8.33438 12.4902C8.33438 11.385 8.77342 10.3251 9.55492 9.54359C10.3364 8.76209 11.3964 8.32305 12.5016 8.32305Z" fill="#F9F9F4"/>
</svg>
