<svg width="14" height="16" viewBox="0 0 14 16" fill="none" xmlns="http://www.w3.org/2000/svg">
<path d="M13.2342 8.70754C13.2342 12.4589 10.7522 15.5075 7.00091 15.5075C3.24958 15.5075 0.767578 12.4589 0.767578 8.70754C2.01966 8.71809 3.23753 9.11747 4.25271 9.85043C5.2679 10.5834 6.03022 11.6137 6.43424 12.7989V7.5742H3.60091C3.15004 7.5742 2.71764 7.3951 2.39883 7.07628C2.08002 6.75747 1.90091 6.32507 1.90091 5.8742V2.4742C1.90091 2.35527 1.93833 2.23935 2.00787 2.14287C2.07742 2.04638 2.17555 1.97423 2.28838 1.93662C2.40121 1.89901 2.52302 1.89785 2.63654 1.93331C2.75006 1.96877 2.84955 2.03906 2.92091 2.1342L4.65491 4.40087L6.52491 1.00087C6.57628 0.92134 6.64676 0.855949 6.72991 0.81067C6.81306 0.765391 6.90623 0.741669 7.00091 0.741669C7.09559 0.741669 7.18876 0.765391 7.27191 0.81067C7.35506 0.855949 7.42554 0.92134 7.47691 1.00087L9.34691 4.40087L11.0809 2.1342C11.1523 2.03906 11.2518 1.96877 11.3653 1.93331C11.4788 1.89785 11.6006 1.89901 11.7134 1.93662C11.8263 1.97423 11.9244 2.04638 11.9939 2.14287C12.0635 2.23935 12.1009 2.35527 12.1009 2.4742V5.8742C12.1009 6.32507 11.9218 6.75747 11.603 7.07628C11.2842 7.3951 10.8518 7.5742 10.4009 7.5742H7.56758V12.7989C7.9716 11.6137 8.73393 10.5834 9.74911 9.85043C10.7643 9.11747 11.9822 8.71809 13.2342 8.70754Z" fill="#93C0A3"/>
</svg>
