<svg width="24" height="25" viewBox="0 0 24 25" fill="none" xmlns="http://www.w3.org/2000/svg">
<path d="M21.75 18.5701H18.75V16.3201H21C21.114 16.3201 21.2264 16.2941 21.3288 16.2441C21.4313 16.1941 21.5209 16.1215 21.5911 16.0316C21.6612 15.9418 21.7099 15.8372 21.7336 15.7257C21.7572 15.6142 21.7551 15.4988 21.7275 15.3882L18.7275 3.38823C18.6869 3.22606 18.5932 3.08212 18.4614 2.97927C18.3296 2.87642 18.1672 2.82056 18 2.82056C17.8328 2.82056 17.6704 2.87642 17.5386 2.97927C17.4068 3.08212 17.3131 3.22606 17.2725 3.38823L14.2725 15.3882C14.2449 15.4988 14.2428 15.6142 14.2664 15.7257C14.2901 15.8372 14.3388 15.9418 14.4089 16.0316C14.4791 16.1215 14.5687 16.1941 14.6712 16.2441C14.7736 16.2941 14.886 16.3201 15 16.3201H17.25V18.5701H11.25V17.0701H12C12.1989 17.0701 12.3897 16.9911 12.5303 16.8504C12.671 16.7098 12.75 16.519 12.75 16.3201C12.75 16.1212 12.671 15.9304 12.5303 15.7898C12.3897 15.6491 12.1989 15.5701 12 15.5701H11.25V14.0701H12C12.1989 14.0701 12.3897 13.9911 12.5303 13.8504C12.671 13.7098 12.75 13.519 12.75 13.3201C12.75 13.1212 12.671 12.9304 12.5303 12.7898C12.3897 12.6491 12.1989 12.5701 12 12.5701H3.75C3.55109 12.5701 3.36032 12.6491 3.21967 12.7898C3.07902 12.9304 3 13.1212 3 13.3201C3 13.519 3.07902 13.7098 3.21967 13.8504C3.36032 13.9911 3.55109 14.0701 3.75 14.0701H4.5V15.5701H3.75C3.55109 15.5701 3.36032 15.6491 3.21967 15.7898C3.07902 15.9304 3 16.1212 3 16.3201C3 16.519 3.07902 16.7098 3.21967 16.8504C3.36032 16.9911 3.55109 17.0701 3.75 17.0701H4.5V18.5701H2.25C2.05109 18.5701 1.86032 18.6491 1.71967 18.7898C1.57902 18.9304 1.5 19.1212 1.5 19.3201C1.5 19.519 1.57902 19.7098 1.71967 19.8504C1.86032 19.9911 2.05109 20.0701 2.25 20.0701H21.75C21.9489 20.0701 22.1397 19.9911 22.2803 19.8504C22.421 19.7098 22.5 19.519 22.5 19.3201C22.5 19.1212 22.421 18.9304 22.2803 18.7898C22.1397 18.6491 21.9489 18.5701 21.75 18.5701ZM18 6.66385L20.0391 14.8201H15.9609L18 6.66385ZM6 14.0701H9.75V15.5701H6V14.0701ZM6 17.0701H9.75V18.5701H6V17.0701ZM10.875 9.5701C11.3942 9.5701 11.9017 9.41615 12.3334 9.12771C12.7651 8.83927 13.1015 8.4293 13.3002 7.94965C13.4989 7.46999 13.5508 6.94219 13.4496 6.43299C13.3483 5.92379 13.0983 5.45606 12.7312 5.08895C12.364 4.72184 11.8963 4.47183 11.3871 4.37054C10.8779 4.26926 10.3501 4.32124 9.87046 4.51992C9.3908 4.7186 8.98083 5.05505 8.69239 5.48673C8.40395 5.91841 8.25 6.42593 8.25 6.9451C8.25 7.6413 8.52656 8.30898 9.01884 8.80126C9.51113 9.29354 10.1788 9.5701 10.875 9.5701ZM10.875 5.8201C11.0975 5.8201 11.315 5.88608 11.5 6.0097C11.685 6.13332 11.8292 6.30902 11.9144 6.51458C11.9995 6.72015 12.0218 6.94635 11.9784 7.16458C11.935 7.38281 11.8278 7.58326 11.6705 7.7406C11.5132 7.89793 11.3127 8.00508 11.0945 8.04849C10.8762 8.0919 10.65 8.06962 10.4445 7.98447C10.2389 7.89932 10.0632 7.75512 9.9396 7.57012C9.81598 7.38511 9.75 7.16761 9.75 6.9451C9.75 6.64673 9.86853 6.36059 10.0795 6.14961C10.2905 5.93863 10.5766 5.8201 10.875 5.8201Z" fill="#7AA088"/>
</svg>
