<svg width="48" height="49" viewBox="0 0 48 49" fill="none" xmlns="http://www.w3.org/2000/svg">
<path d="M33.75 30.1409H30.75V27.8909H33C33.114 27.8909 33.2264 27.8649 33.3288 27.8149C33.4313 27.7649 33.5209 27.6923 33.5911 27.6024C33.6612 27.5126 33.7099 27.408 33.7336 27.2965C33.7572 27.185 33.7551 27.0696 33.7275 26.959L30.7275 14.959C30.6869 14.7969 30.5932 14.6529 30.4614 14.5501C30.3296 14.4472 30.1672 14.3914 30 14.3914C29.8328 14.3914 29.6704 14.4472 29.5386 14.5501C29.4068 14.6529 29.3131 14.7969 29.2725 14.959L26.2725 26.959C26.2449 27.0696 26.2428 27.185 26.2664 27.2965C26.2901 27.408 26.3388 27.5126 26.4089 27.6024C26.4791 27.6923 26.5687 27.7649 26.6712 27.8149C26.7736 27.8649 26.886 27.8909 27 27.8909H29.25V30.1409H23.25V28.6409H24C24.1989 28.6409 24.3897 28.5619 24.5303 28.4212C24.671 28.2806 24.75 28.0898 24.75 27.8909C24.75 27.692 24.671 27.5012 24.5303 27.3606C24.3897 27.2199 24.1989 27.1409 24 27.1409H23.25V25.6409H24C24.1989 25.6409 24.3897 25.5619 24.5303 25.4212C24.671 25.2806 24.75 25.0898 24.75 24.8909C24.75 24.692 24.671 24.5012 24.5303 24.3606C24.3897 24.2199 24.1989 24.1409 24 24.1409H15.75C15.5511 24.1409 15.3603 24.2199 15.2197 24.3606C15.079 24.5012 15 24.692 15 24.8909C15 25.0898 15.079 25.2806 15.2197 25.4212C15.3603 25.5619 15.5511 25.6409 15.75 25.6409H16.5V27.1409H15.75C15.5511 27.1409 15.3603 27.2199 15.2197 27.3606C15.079 27.5012 15 27.692 15 27.8909C15 28.0898 15.079 28.2806 15.2197 28.4212C15.3603 28.5619 15.5511 28.6409 15.75 28.6409H16.5V30.1409H14.25C14.0511 30.1409 13.8603 30.2199 13.7197 30.3606C13.579 30.5012 13.5 30.692 13.5 30.8909C13.5 31.0898 13.579 31.2806 13.7197 31.4212C13.8603 31.5619 14.0511 31.6409 14.25 31.6409H33.75C33.9489 31.6409 34.1397 31.5619 34.2803 31.4212C34.421 31.2806 34.5 31.0898 34.5 30.8909C34.5 30.692 34.421 30.5012 34.2803 30.3606C34.1397 30.2199 33.9489 30.1409 33.75 30.1409ZM30 18.2347L32.0391 26.3909H27.9609L30 18.2347ZM18 25.6409H21.75V27.1409H18V25.6409ZM18 28.6409H21.75V30.1409H18V28.6409ZM22.875 21.1409C23.3942 21.1409 23.9017 20.987 24.3334 20.6985C24.7651 20.4101 25.1015 20.0001 25.3002 19.5204C25.4989 19.0408 25.5508 18.513 25.4496 18.0038C25.3483 17.4946 25.0983 17.0269 24.7312 16.6597C24.364 16.2926 23.8963 16.0426 23.3871 15.9413C22.8779 15.8401 22.3501 15.892 21.8705 16.0907C21.3908 16.2894 20.9808 16.6259 20.6924 17.0575C20.404 17.4892 20.25 17.9967 20.25 18.5159C20.25 19.2121 20.5266 19.8798 21.0188 20.3721C21.5111 20.8643 22.1788 21.1409 22.875 21.1409ZM22.875 17.3909C23.0975 17.3909 23.315 17.4569 23.5 17.5805C23.685 17.7041 23.8292 17.8798 23.9144 18.0854C23.9995 18.291 24.0218 18.5172 23.9784 18.7354C23.935 18.9536 23.8278 19.1541 23.6705 19.3114C23.5132 19.4687 23.3127 19.5759 23.0945 19.6193C22.8762 19.6627 22.65 19.6404 22.4445 19.5553C22.2389 19.4701 22.0632 19.3259 21.9396 19.1409C21.816 18.9559 21.75 18.7384 21.75 18.5159C21.75 18.2175 21.8685 17.9314 22.0795 17.7204C22.2905 17.5094 22.5766 17.3909 22.875 17.3909Z" fill="#1D2621"/>
</svg>
