<svg width="48" height="49" viewBox="0 0 48 49" fill="none" xmlns="http://www.w3.org/2000/svg">
<path d="M30.2333 24.7076C30.2333 28.4589 27.7513 31.5076 23.9999 31.5076C20.2486 31.5076 17.7666 28.4589 17.7666 24.7076C19.0187 24.7181 20.2366 25.1175 21.2517 25.8505C22.2669 26.5834 23.0292 27.6137 23.4333 28.7989V23.5742H20.5999C20.1491 23.5742 19.7167 23.3951 19.3979 23.0763C19.079 22.7575 18.8999 22.3251 18.8999 21.8742V18.4742C18.8999 18.3553 18.9374 18.2394 19.0069 18.1429C19.0764 18.0464 19.1746 17.9743 19.2874 17.9366C19.4002 17.899 19.522 17.8979 19.6356 17.9333C19.7491 17.9688 19.8486 18.0391 19.9199 18.1342L21.6539 20.4009L23.5239 17.0009C23.5753 16.9214 23.6458 16.856 23.7289 16.8107C23.8121 16.7654 23.9053 16.7417 23.9999 16.7417C24.0946 16.7417 24.1878 16.7654 24.2709 16.8107C24.3541 16.856 24.4246 16.9214 24.4759 17.0009L26.3459 20.4009L28.0799 18.1342C28.1513 18.0391 28.2508 17.9688 28.3643 17.9333C28.4778 17.8979 28.5996 17.899 28.7125 17.9366C28.8253 17.9743 28.9234 18.0464 28.993 18.1429C29.0625 18.2394 29.0999 18.3553 29.0999 18.4742V21.8742C29.0999 22.3251 28.9208 22.7575 28.602 23.0763C28.2832 23.3951 27.8508 23.5742 27.3999 23.5742H24.5666V28.7989C24.9706 27.6137 25.7329 26.5834 26.7481 25.8505C27.7633 25.1175 28.9812 24.7181 30.2333 24.7076Z" fill="#1D2621"/>
</svg>
