<svg width="48" height="49" viewBox="0 0 48 49" fill="none" xmlns="http://www.w3.org/2000/svg">
<g clip-path="url(#clip0_82_14621)">
<path fill-rule="evenodd" clip-rule="evenodd" d="M26.76 25.4109L32.49 31.1409L31 32.6309L25.27 26.9009C24.2 27.6709 22.91 28.1409 21.5 28.1409C17.91 28.1409 15 25.2309 15 21.6409C15 18.0509 17.91 15.1409 21.5 15.1409C25.09 15.1409 28 18.0509 28 21.6409C28 23.0509 27.53 24.3409 26.76 25.4109ZM21.5 17.1409C19.01 17.1409 17 19.1509 17 21.6409C17 24.1309 19.01 26.1409 21.5 26.1409C23.99 26.1409 26 24.1309 26 21.6409C26 19.1509 23.99 17.1409 21.5 17.1409Z" fill="#1D2621"/>
</g>
<defs>
<clipPath id="clip0_82_14621">
<rect x="4" y="4.14087" width="40" height="40" rx="20" fill="white"/>
</clipPath>
</defs>
</svg>
