<svg width="49" height="49" viewBox="0 0 49 49" fill="none" xmlns="http://www.w3.org/2000/svg">
<path d="M27.0213 21.9604C28.7929 21.9604 29.8831 19.3711 29.8831 17.7357C29.8831 16.3729 29.2017 14.7376 27.8389 14.7376C26.0673 14.7376 24.9771 17.3269 24.9771 18.9622C24.9771 20.325 25.6585 21.9604 27.0213 21.9604ZM21.8427 21.9604C23.2054 21.9604 23.8868 20.325 23.8868 18.9622C23.8868 17.1906 22.7966 14.6013 21.025 14.6013C19.6622 14.6013 18.9808 16.2367 18.9808 17.5995C18.8445 19.3711 19.9348 21.9604 21.8427 21.9604ZM31.9273 20.5976C30.1557 20.5976 28.9292 23.0506 28.9292 24.8222C28.9292 26.0488 29.4743 27.2753 30.7008 27.2753C32.4724 27.2753 33.6989 24.8222 33.6989 23.0506C33.6989 21.8241 33.0175 20.5976 31.9273 20.5976ZM20.071 24.8222C20.071 23.0506 18.7082 20.5976 17.0729 20.5976C15.8464 20.5976 15.3013 21.8241 15.3013 23.0506C15.3013 24.8222 16.6641 27.2753 18.2994 27.2753C19.5259 27.2753 20.071 26.0488 20.071 24.8222ZM24.432 24.5497C21.7064 24.5497 18.0268 28.9106 18.0268 31.9087C18.0268 33.2715 18.9808 33.6804 20.071 33.6804C21.7064 33.6804 22.9329 32.5901 24.432 32.5901C25.7947 32.5901 27.0213 33.6804 28.5203 33.6804C29.6106 33.6804 30.8371 33.4078 30.8371 31.9087C30.8371 28.9106 27.1575 24.5497 24.432 24.5497Z" fill="#1D2621"/>
</svg>
