<svg width="49" height="49" viewBox="0 0 49 49" fill="none" xmlns="http://www.w3.org/2000/svg">
<path d="M16.1 21.1409H32.9M16.1 27.1409H32.9M15.5 24.1409C15.5 25.3228 15.7328 26.4931 16.1851 27.585C16.6374 28.677 17.3003 29.6691 18.136 30.5048C18.9718 31.3406 19.9639 32.0035 21.0558 32.4558C22.1478 32.9081 23.3181 33.1409 24.5 33.1409C25.6819 33.1409 26.8522 32.9081 27.9442 32.4558C29.0361 32.0035 30.0282 31.3406 30.864 30.5048C31.6997 29.6691 32.3626 28.677 32.8149 27.585C33.2672 26.4931 33.5 25.3228 33.5 24.1409C33.5 21.7539 32.5518 19.4647 30.864 17.7769C29.1761 16.0891 26.8869 15.1409 24.5 15.1409C22.1131 15.1409 19.8239 16.0891 18.136 17.7769C16.4482 19.4647 15.5 21.7539 15.5 24.1409Z" stroke="#1D2621" stroke-width="2" stroke-linecap="round" stroke-linejoin="round"/>
<path d="M24.0002 15.1409C22.3155 17.8405 21.4224 20.9587 21.4224 24.1409C21.4224 27.323 22.3155 30.4413 24.0002 33.1409M25.0002 15.1409C26.6848 17.8405 27.578 20.9587 27.578 24.1409C27.578 27.323 26.6848 30.4413 25.0002 33.1409" stroke="#1D2621" stroke-width="2" stroke-linecap="round" stroke-linejoin="round"/>
</svg>
