<svg width="48" height="49" viewBox="0 0 48 49" fill="none" xmlns="http://www.w3.org/2000/svg">
<path d="M24 21.1409C24.7956 21.1409 25.5587 21.4569 26.1213 22.0195C26.6839 22.5822 27 23.3452 27 24.1409C27 24.9365 26.6839 25.6996 26.1213 26.2622C25.5587 26.8248 24.7956 27.1409 24 27.1409C23.2044 27.1409 22.4413 26.8248 21.8787 26.2622C21.3161 25.6996 21 24.9365 21 24.1409C21 23.3452 21.3161 22.5822 21.8787 22.0195C22.4413 21.4569 23.2044 21.1409 24 21.1409ZM24 16.6409C29 16.6409 33.27 19.7509 35 24.1409C33.27 28.5309 29 31.6409 24 31.6409C19 31.6409 14.73 28.5309 13 24.1409C14.73 19.7509 19 16.6409 24 16.6409ZM15.18 24.1409C15.9883 25.7912 17.2433 27.1816 18.8025 28.1541C20.3617 29.1266 22.1624 29.6422 24 29.6422C25.8376 29.6422 27.6383 29.1266 29.1975 28.1541C30.7567 27.1816 32.0117 25.7912 32.82 24.1409C32.0117 22.4906 30.7567 21.1001 29.1975 20.1276C27.6383 19.1551 25.8376 18.6395 24 18.6395C22.1624 18.6395 20.3617 19.1551 18.8025 20.1276C17.2433 21.1001 15.9883 22.4906 15.18 24.1409Z" fill="#1D2621"/>
</svg>
