<svg width="49" height="49" viewBox="0 0 49 49" fill="none" xmlns="http://www.w3.org/2000/svg">
<path d="M14.25 17.4109L15.53 16.1409L32.25 32.8609L30.98 34.1409L27.9 31.0609C26.75 31.4409 25.53 31.6409 24.25 31.6409C19.25 31.6409 14.98 28.5309 13.25 24.1409C13.94 22.3809 15.04 20.8309 16.44 19.6009L14.25 17.4109ZM24.25 21.1409C25.0456 21.1409 25.8087 21.4569 26.3713 22.0195C26.9339 22.5822 27.25 23.3452 27.25 24.1409C27.2505 24.4814 27.193 24.8196 27.08 25.1409L23.25 21.3109C23.5713 21.1979 23.9094 21.1404 24.25 21.1409ZM24.25 16.6409C29.25 16.6409 33.52 19.7509 35.25 24.1409C34.4334 26.2138 33.0466 28.0132 31.25 29.3309L29.83 27.9009C31.2129 26.9443 32.3283 25.65 33.07 24.1409C32.2617 22.4907 31.0065 21.1005 29.4474 20.1282C27.8882 19.1559 26.0875 18.6406 24.25 18.6409C23.16 18.6409 22.09 18.8209 21.09 19.1409L19.55 17.6109C20.99 16.9909 22.58 16.6409 24.25 16.6409ZM15.43 24.1409C16.2383 25.791 17.4935 27.1812 19.0526 28.1535C20.6118 29.1258 22.4125 29.6411 24.25 29.6409C24.94 29.6409 25.62 29.5709 26.25 29.4309L23.97 27.1409C23.2742 27.0663 22.6248 26.7557 22.13 26.2609C21.6351 25.766 21.3246 25.1167 21.25 24.4209L17.85 21.0109C16.86 21.8609 16.03 22.9209 15.43 24.1409Z" fill="#1D2621"/>
</svg>
