<svg width="24" height="25" viewBox="0 0 24 25" fill="none" xmlns="http://www.w3.org/2000/svg">
<path d="M9.99998 5.74206C9.99998 4.35206 8.42298 3.24906 6.49998 3.57006C3.67698 4.04006 2.38698 9.57606 2.49998 10.5701C2.57998 11.2731 4.22498 12.2921 6.15598 11.5701C7.41698 11.0981 8.11598 10.1201 8.49998 9.07006M14.267 5.74206C14.267 4.35206 15.844 3.24906 17.767 3.57006C20.59 4.04006 21.88 9.57606 21.767 10.5701C21.687 11.2731 20.042 12.2921 18.111 11.5701C16.85 11.0981 16.256 10.1201 15.872 9.07006M7.99998 14.5701V15.0701M16 14.5701V15.0701M11.25 16.8201H12.75L12 17.5701L11.25 16.8201Z" stroke="#7AA088" stroke-width="2" stroke-linecap="round" stroke-linejoin="round"/>
<path d="M4.42 11.8171C4.14064 12.8979 3.99952 14.0098 4 15.1261C4 19.2981 7.582 21.5701 12 21.5701C16.418 21.5701 20 19.2981 20 15.1261C20 14.0651 19.838 12.9261 19.507 11.8171M10.264 5.73509C10.836 5.62403 11.4174 5.56877 12 5.57009C12.78 5.57009 13.5 5.67809 14.161 5.87609" stroke="#7AA088" stroke-width="2" stroke-linecap="round" stroke-linejoin="round"/>
</svg>
