<svg width="49" height="49" viewBox="0 0 49 49" fill="none" xmlns="http://www.w3.org/2000/svg">
<path d="M22.5 17.3129C22.5 15.9229 20.923 14.8199 19 15.1409C16.177 15.6109 14.887 21.1469 15 22.1409C15.08 22.8439 16.725 23.8629 18.656 23.1409C19.917 22.6689 20.616 21.6909 21 20.6409M26.767 17.3129C26.767 15.9229 28.344 14.8199 30.267 15.1409C33.09 15.6109 34.38 21.1469 34.267 22.1409C34.187 22.8439 32.542 23.8629 30.611 23.1409C29.35 22.6689 28.756 21.6909 28.372 20.6409M20.5 26.1409V26.6409M28.5 26.1409V26.6409M23.75 28.3909H25.25L24.5 29.1409L23.75 28.3909Z" stroke="#1D2621" stroke-width="2" stroke-linecap="round" stroke-linejoin="round"/>
<path d="M16.92 23.3879C16.6406 24.4687 16.4995 25.5806 16.5 26.6969C16.5 30.8689 20.082 33.1409 24.5 33.1409C28.918 33.1409 32.5 30.8689 32.5 26.6969C32.5 25.6359 32.338 24.4969 32.007 23.3879M22.764 17.3059C23.336 17.1948 23.9174 17.1396 24.5 17.1409C25.28 17.1409 26 17.2489 26.661 17.4469" stroke="#1D2621" stroke-width="2" stroke-linecap="round" stroke-linejoin="round"/>
</svg>
