<svg width="24" height="25" viewBox="0 0 24 25" fill="none" xmlns="http://www.w3.org/2000/svg">
<g clip-path="url(#clip0_82_14617)">
<path d="M18.249 13.5509C17.463 15.1439 16.398 16.7309 15.309 18.1559C14.2748 19.4984 13.1703 20.7852 12 22.0109C10.8297 20.7852 9.72518 19.4984 8.691 18.1559C7.602 16.7309 6.537 15.1439 5.751 13.5509C4.956 11.9414 4.5 10.4339 4.5 9.14087C4.5 7.15175 5.29018 5.24409 6.6967 3.83757C8.10322 2.43105 10.0109 1.64087 12 1.64087C13.9891 1.64087 15.8968 2.43105 17.3033 3.83757C18.7098 5.24409 19.5 7.15175 19.5 9.14087C19.5 10.4339 19.0425 11.9414 18.249 13.5509ZM12 24.1409C12 24.1409 21 15.6119 21 9.14087C21 6.75392 20.0518 4.46474 18.364 2.77691C16.6761 1.08908 14.3869 0.140869 12 0.140869C9.61305 0.140869 7.32387 1.08908 5.63604 2.77691C3.94821 4.46474 3 6.75392 3 9.14087C3 15.6119 12 24.1409 12 24.1409Z" fill="#93C0A3"/>
<path d="M10.838 12.7775H7.75369C7.51529 12.7775 7.33649 12.6732 7.21729 12.4646C7.09809 12.256 7.10802 12.0523 7.24709 11.8537L9.02019 9.20148H8.97549C8.73709 9.20148 8.56067 9.09479 8.44624 8.88142C8.33181 8.66806 8.34432 8.46184 8.48379 8.26278L11.5085 3.94178C11.5681 3.86231 11.6426 3.80033 11.732 3.75583C11.8214 3.71133 11.9108 3.68888 12.0002 3.68848C12.0896 3.68808 12.179 3.71053 12.2684 3.75583C12.3578 3.80113 12.4323 3.86311 12.4919 3.94178L15.5166 8.26278C15.6556 8.46144 15.6682 8.66766 15.5541 8.88142C15.4401 9.09519 15.2637 9.20187 15.0249 9.20148H14.9802L16.7533 11.8537C16.8923 12.0523 16.9023 12.256 16.7831 12.4646C16.6639 12.6732 16.4851 12.7775 16.2467 12.7775H13.1624V14.5655C13.1624 14.7343 13.1054 14.876 12.9913 14.9904C12.8773 15.1048 12.7356 15.1619 12.5664 15.1615H11.434C11.2651 15.1615 11.1237 15.1043 11.0096 14.9898C10.8956 14.8754 10.8384 14.7339 10.838 14.5655V12.7775ZM8.87119 11.5855H11.2552H10.1228H13.8776H12.7452H15.1292H8.87119ZM8.87119 11.5855H15.1292L12.7452 8.00948H13.8776L12.0002 5.32748L10.1228 8.00948H11.2552L8.87119 11.5855Z" fill="#93C0A3"/>
</g>
<defs>
<clipPath id="clip0_82_14617">
<rect width="24" height="24" fill="white" transform="translate(0 0.140869)"/>
</clipPath>
</defs>
</svg>
