<svg width="48" height="49" viewBox="0 0 48 49" fill="none" xmlns="http://www.w3.org/2000/svg">
<g clip-path="url(#clip0_82_14615)">
<path d="M30.249 25.5509C29.463 27.1439 28.398 28.7309 27.309 30.1559C26.2748 31.4984 25.1703 32.7852 24 34.0109C22.8297 32.7852 21.7252 31.4984 20.691 30.1559C19.602 28.7309 18.537 27.1439 17.751 25.5509C16.956 23.9414 16.5 22.4339 16.5 21.1409C16.5 19.1517 17.2902 17.2441 18.6967 15.8376C20.1032 14.431 22.0109 13.6409 24 13.6409C25.9891 13.6409 27.8968 14.431 29.3033 15.8376C30.7098 17.2441 31.5 19.1517 31.5 21.1409C31.5 22.4339 31.0425 23.9414 30.249 25.5509ZM24 36.1409C24 36.1409 33 27.6119 33 21.1409C33 18.7539 32.0518 16.4647 30.364 14.7769C28.6761 13.0891 26.3869 12.1409 24 12.1409C21.6131 12.1409 19.3239 13.0891 17.636 14.7769C15.9482 16.4647 15 18.7539 15 21.1409C15 27.6119 24 36.1409 24 36.1409Z" fill="#1D2621"/>
<path d="M22.838 24.7775H19.7537C19.5153 24.7775 19.3365 24.6732 19.2173 24.4646C19.0981 24.256 19.108 24.0523 19.2471 23.8537L21.0202 21.2015H20.9755C20.7371 21.2015 20.5607 21.0948 20.4462 20.8814C20.3318 20.6681 20.3443 20.4618 20.4838 20.2628L23.5085 15.9418C23.5681 15.8623 23.6426 15.8003 23.732 15.7558C23.8214 15.7113 23.9108 15.6889 24.0002 15.6885C24.0896 15.6881 24.179 15.7105 24.2684 15.7558C24.3578 15.8011 24.4323 15.8631 24.4919 15.9418L27.5166 20.2628C27.6556 20.4614 27.6682 20.6677 27.5541 20.8814C27.4401 21.0952 27.2637 21.2019 27.0249 21.2015H26.9802L28.7533 23.8537C28.8923 24.0523 28.9023 24.256 28.7831 24.4646C28.6639 24.6732 28.4851 24.7775 28.2467 24.7775H25.1624V26.5655C25.1624 26.7343 25.1054 26.876 24.9913 26.9904C24.8773 27.1048 24.7356 27.1619 24.5664 27.1615H23.434C23.2651 27.1615 23.1237 27.1043 23.0096 26.9898C22.8956 26.8754 22.8384 26.7339 22.838 26.5655V24.7775ZM20.8712 23.5855H23.2552H22.1228H25.8776H24.7452H27.1292H20.8712ZM20.8712 23.5855H27.1292L24.7452 20.0095H25.8776L24.0002 17.3275L22.1228 20.0095H23.2552L20.8712 23.5855Z" fill="#1D2621"/>
</g>
<defs>
<clipPath id="clip0_82_14615">
<rect width="24" height="24" fill="white" transform="translate(12 12.1409)"/>
</clipPath>
</defs>
</svg>
