<svg width="49" height="49" viewBox="0 0 49 49" fill="none" xmlns="http://www.w3.org/2000/svg">
<path d="M19.7178 23.0653C20.9978 25.5809 23.06 27.6342 25.5756 28.9231L27.5311 26.9675C27.7711 26.7275 28.1267 26.6475 28.4378 26.7542C29.4333 27.0831 30.5089 27.2609 31.6111 27.2609C32.1 27.2609 32.5 27.6609 32.5 28.1498V31.252C32.5 31.7409 32.1 32.1409 31.6111 32.1409C23.2644 32.1409 16.5 25.3764 16.5 17.0298C16.5 16.5409 16.9 16.1409 17.3889 16.1409H20.5C20.9889 16.1409 21.3889 16.5409 21.3889 17.0298C21.3889 18.1409 21.5667 19.2075 21.8956 20.2031C21.9933 20.5142 21.9222 20.8609 21.6733 21.1098L19.7178 23.0653Z" fill="#1D2621"/>
</svg>
