<svg width="32" height="32" viewBox="0 0 32 32" fill="none" xmlns="http://www.w3.org/2000/svg">
<path d="M18.7772 31.9794L14.9426 17.5529L11.4752 31.9794C9.48946 31.9604 7.33251 32.2339 5.49254 31.2364C4.14872 30.5078 2.65003 29.284 1.17736 25.6554C-0.0767654 22.5653 -0.217641 18.7599 0.236866 16.3748C0.71844 13.8476 2.11742 11.6918 3.16898 10.7311C4.31351 9.68555 5.27441 8.9157 6.82029 8.78723C7.8586 8.70094 8.6644 9.30979 8.81194 9.60242C9.38464 10.4573 9.23191 11.4287 8.84466 11.8677C8.75646 11.9676 8.59195 12.0965 8.37805 12.264C7.65276 12.832 6.3596 13.8448 5.54787 15.685C4.49674 18.0679 4.77334 20.3253 5.27124 21.893C5.76915 23.4607 6.59899 24.8402 7.37351 25.1538C7.93097 25.3794 8.56009 25.419 8.88213 25.4094L10.0595 19.9345L10.0636 19.9357L12.5826 8.55304C12.6107 8.35556 12.6528 8.16527 12.7089 7.98217L12.7398 7.8428H12.7549C12.8358 7.61357 12.9397 7.39608 13.0664 7.19031C13.5253 6.37129 14.2249 5.92924 15.1652 5.86415C15.6418 5.86144 16.1228 6.0628 16.6083 6.46825C17.0012 6.79919 17.2952 7.45262 17.4902 8.42853L20.5771 21.2721L20.5726 21.3155L21.8135 26.3838C23.4357 24.1254 23.2344 21.0639 22.8069 18.4177C22.7326 17.9577 22.6608 17.4973 22.5908 17.0365L22.5903 17.0331C21.8749 12.3247 20.69 1.43046 26.7918 0.133653C28.988 -0.333095 32.1793 0.336473 31.9921 3.51982C31.9188 4.7668 30.7811 5.28695 29.8513 5.03376C29.5119 4.94131 29.1332 4.83818 28.7281 4.8994C27.8983 5.02482 27.4003 5.65188 26.9024 6.34165C25.3266 8.52478 26.5389 11.4643 27.0131 13.8038C27.7615 17.4963 28.4283 21.5975 27.345 25.2792C26.364 28.6134 23.742 31.5871 20.5451 31.9023C19.9501 31.961 19.3728 31.9794 18.7772 31.9794Z" fill="#F89A56"/>
</svg>
