<svg width="48" height="48" viewBox="0 0 48 48" fill="none" xmlns="http://www.w3.org/2000/svg">
<g clip-path="url(#clip0_663_3247)">
<path d="M24.0003 12.5714C22.5876 12.5714 21.2066 12.9903 20.0319 13.7752C18.8573 14.5601 17.9418 15.6756 17.4011 16.9808C16.8605 18.286 16.7191 19.7222 16.9947 21.1078C17.2703 22.4933 17.9506 23.7661 18.9495 24.765C19.9485 25.764 21.2212 26.4443 22.6068 26.7199C23.9924 26.9955 25.4285 26.854 26.7337 26.3134C28.0389 25.7728 29.1545 24.8573 29.9393 23.6826C30.7242 22.508 31.1431 21.127 31.1431 19.7143C31.1431 17.8199 30.3906 16.0031 29.051 14.6635C27.7115 13.324 25.8947 12.5714 24.0003 12.5714Z" fill="white"/>
<path d="M24 4C20.0444 4 16.1776 5.17298 12.8886 7.37061C9.59962 9.56823 7.03617 12.6918 5.52242 16.3463C4.00867 20.0009 3.6126 24.0222 4.3843 27.9018C5.15601 31.7814 7.06082 35.3451 9.85787 38.1421C12.6549 40.9392 16.2186 42.844 20.0982 43.6157C23.9778 44.3874 27.9991 43.9913 31.6537 42.4776C35.3082 40.9638 38.4318 38.4004 40.6294 35.1114C42.827 31.8224 44 27.9556 44 24C43.9939 18.6975 41.8849 13.614 38.1355 9.86454C34.386 6.11513 29.3025 4.00605 24 4ZM35.4186 36.7514C35.3901 34.8774 34.6265 33.0895 33.2922 31.7732C31.958 30.4569 30.16 29.7174 28.2857 29.7143H19.7143C17.8403 29.7178 16.0426 30.4574 14.7087 31.7737C13.3748 33.09 12.6113 34.8776 12.5829 36.7514C9.99224 34.4382 8.16534 31.3927 7.34406 28.0181C6.52278 24.6435 6.74586 21.0991 7.98378 17.8541C9.22169 14.6091 11.416 11.8167 14.2763 9.84652C17.1365 7.87638 20.5276 6.82146 24.0007 6.82146C27.4738 6.82146 30.865 7.87638 33.7252 9.84652C36.5854 11.8167 38.7797 14.6091 40.0177 17.8541C41.2556 21.0991 41.4787 24.6435 40.6574 28.0181C39.8361 31.3927 38.0092 34.4382 35.4186 36.7514Z" fill="white"/>
</g>
<defs>
<clipPath id="clip0_663_3247">
<rect width="48" height="48" rx="24" fill="white"/>
</clipPath>
</defs>
</svg>
